<svg xmlns="http://www.w3.org/2000/svg" version="1.1" xmlns:xlink="http://www.w3.org/1999/xlink" xmlns:svgjs="http://svgjs.dev/svgjs" width="1500" height="1500" viewBox="0 0 1500 1500"><rect width="1500" height="1500" fill="#ffffff"></rect><g transform="matrix(0.6666666666666666,0,0,0.6666666666666666,249.39393939393938,435.99032258064517)"><svg viewBox="0 0 396 248" data-background-color="#ffffff" preserveAspectRatio="xMidYMid meet" height="939" width="1500" xmlns="http://www.w3.org/2000/svg" xmlns:xlink="http://www.w3.org/1999/xlink"><g id="tight-bounds" transform="matrix(1,0,0,1,0.2400000000000091,0.4000000000000057)"><svg viewBox="0 0 395.52 247.2" height="247.2" width="395.52"><g><svg></svg></g><g><svg viewBox="0 0 395.52 247.2" height="247.2" width="395.52"><mask id="25b3cab1-1c64-4439-837a-e185b5a3c8f6"><rect width="395.52" height="247.2" fill="white"></rect><g transform="matrix(1,0,0,1,0,105.9754809259863)" id="clone"><svg viewBox="0 0 395.52 35.24903814802738" height="35.24903814802738" width="395.52"><g><svg viewBox="0 0 395.52 35.24903814802738" height="35.24903814802738" width="395.52"><g><svg viewBox="0 0 395.52 35.24903814802738" height="35.24903814802738" width="395.52"><g><svg viewBox="0 0 395.52 35.24903814802738" height="35.24903814802738" width="395.52"><g id="SvgjsG4743"><svg viewBox="0 0 395.52 35.24903814802738" height="35.24903814802738" width="395.52" id="SvgjsSvg4742"><g><svg viewBox="0 0 395.52 35.24903814802738" height="35.24903814802738" width="395.52"><g transform="matrix(1,0,0,1,0,0)"><svg width="395.52" viewBox="0 -38.5 461 42" height="35.24903814802738" data-palette-color="#39cccc"><path d="M30.85-17.35L30.85-17.35Q30.8-20.15 30.03-22.65 29.25-25.15 27.78-27.03 26.3-28.9 24.2-30 22.1-31.1 19.45-31.1L19.45-31.1Q16.8-31.1 14.7-30 12.6-28.9 11.13-27.03 9.65-25.15 8.88-22.65 8.1-20.15 8.05-17.35L8.05-17.35Q8.1-14.5 8.88-12.05 9.65-9.6 11.13-7.8 12.6-6 14.7-4.95 16.8-3.9 19.45-3.9L19.45-3.9Q22.1-3.9 24.2-4.95 26.3-6 27.78-7.8 29.25-9.6 30.03-12.05 30.8-14.5 30.85-17.35ZM3-17.35L3-17.35Q3.05-21.5 4.25-24.85 5.45-28.2 7.6-30.58 9.75-32.95 12.75-34.23 15.75-35.5 19.45-35.5L19.45-35.5Q23.1-35.5 26.13-34.23 29.15-32.95 31.3-30.58 33.45-28.2 34.65-24.85 35.85-21.5 35.9-17.35L35.9-17.35Q35.85-13.2 34.68-9.9 33.5-6.6 31.35-4.3 29.2-2 26.18-0.75 23.15 0.5 19.45 0.5L19.45 0.5Q15.75 0.5 12.73-0.75 9.7-2 7.55-4.3 5.4-6.6 4.23-9.9 3.05-13.2 3-17.35ZM49.7-24L58.55-24 58.55-19.8 49.7-19.8Q48.25-19.8 47.2-19.25 46.15-18.7 46.15-17.7L46.15-17.7Q46.15-17.1 46.4-16.63 46.65-16.15 46.97-15.85 47.3-15.55 47.97-15.23 48.65-14.9 49.02-14.78 49.4-14.65 52.2-13.75 55-12.85 56.35-12.25 57.7-11.65 58.42-10.63 59.15-9.6 59.35-8.63 59.55-7.65 59.55-6.7L59.55-6.7Q59.55 0 50.35 0L50.35 0 41.7 0 41.7-4.2 50.35-4.2Q55.05-4.2 55.05-6.7L55.05-6.7Q55.05-7.9 53.67-8.7 52.3-9.5 50.32-10.05 48.35-10.6 46.37-11.33 44.4-12.05 43.02-13.68 41.65-15.3 41.65-17.7L41.65-17.7Q41.65-20.75 44-22.38 46.35-24 49.7-24L49.7-24ZM77.9-14.1L77.9-14.1 77.9-9.6Q76-11.05 73.25-11.05L73.25-11.05Q70.9-11.05 69.6-10.13 68.3-9.2 68.3-7.5L68.3-7.5Q68.3-4.2 73.2-4.2L73.2-4.2 79.8-4.2 79.8-13.75Q79.8-19.8 73.9-19.8L73.9-19.8 65.9-19.8 65.9-24 74.15-24Q79-24 81.6-21.6 84.2-19.2 84.2-14.7L84.2-14.7 84.2 0 73.05 0Q68.8 0 66.3-1.9 63.8-3.8 63.8-7.45 63.8-11.1 66.45-13 69.1-14.9 73.1-14.9L73.1-14.9Q75.35-14.9 77.9-14.1ZM89.94 0L89.94-24 111.99-24Q115.54-24 117.64-22.65L117.64-22.65Q119.79-21.3 120.47-19.15 121.14-17 121.14-14L121.14-14 121.14 0 116.74 0 116.74-14Q116.74-17.9 114.39-19.15L114.39-19.15Q113.19-19.8 109.54-19.8L109.54-19.8 107.49-19.8 107.49 0 103.09 0 103.09-19.8 94.34-19.8 94.34 0 89.94 0ZM140.49-14.1L140.49-14.1 140.49-9.6Q138.59-11.05 135.84-11.05L135.84-11.05Q133.49-11.05 132.19-10.13 130.89-9.2 130.89-7.5L130.89-7.5Q130.89-4.2 135.79-4.2L135.79-4.2 142.39-4.2 142.39-13.75Q142.39-19.8 136.49-19.8L136.49-19.8 128.49-19.8 128.49-24 136.74-24Q141.59-24 144.19-21.6 146.79-19.2 146.79-14.7L146.79-14.7 146.79 0 135.64 0Q131.39 0 128.89-1.9 126.39-3.8 126.39-7.45 126.39-11.1 129.04-13 131.69-14.9 135.69-14.9L135.69-14.9Q137.94-14.9 140.49-14.1ZM168.39-12.8L168.39 0 163.94 0 163.94-22Q163.94-27.4 167.41-31.2 170.89-35 176.39-35L176.39-35 187.84-35 187.84 0 183.14 0 183.14-30.6 176.39-30.6Q172.74-30.6 170.56-28.45 168.39-26.3 168.39-21.6L168.39-21.6 168.39-17.35Q171.19-20.3 176.39-20.3L176.39-20.3 180.94-20.3 180.94-15.9 176.39-15.9Q173.49-15.9 171.66-15.2 169.84-14.5 168.39-12.8L168.39-12.8ZM197.98 0L193.58 0 193.58-13.65Q193.58-19.4 195.73-21.6L195.73-21.6Q196.78-22.7 198.28-23.25 199.78-23.8 200.91-23.9 202.03-24 203.98-24L203.98-24 208.38-24 208.38-19.8 203.08-19.8Q202.08-19.8 201.53-19.75 200.98-19.7 200.23-19.4 199.48-19.1 198.93-18.45L198.93-18.45Q197.98-17.25 197.98-13.65L197.98-13.65 197.98 0ZM224.98-14.1L224.98-14.1 224.98-9.6Q223.08-11.05 220.33-11.05L220.33-11.05Q217.98-11.05 216.68-10.13 215.38-9.2 215.38-7.5L215.38-7.5Q215.38-4.2 220.28-4.2L220.28-4.2 226.88-4.2 226.88-13.75Q226.88-19.8 220.98-19.8L220.98-19.8 212.98-19.8 212.98-24 221.23-24Q226.08-24 228.68-21.6 231.28-19.2 231.28-14.7L231.28-14.7 231.28 0 220.13 0Q215.88 0 213.38-1.9 210.88-3.8 210.88-7.45 210.88-11.1 213.53-13 216.18-14.9 220.18-14.9L220.18-14.9Q222.43-14.9 224.98-14.1ZM236.78-12L236.78-35 241.28-35 241.28-12Q241.28-8.05 243.3-5.88 245.33-3.7 248.88-3.7L248.88-3.7Q252.58-3.7 254.68-5.83 256.78-7.95 256.78-12L256.78-12Q256.78-15.85 254.5-18.07 252.23-20.3 248.53-20.3L248.53-20.3Q245.38-20.3 243.08-18.5L243.08-18.5 243.08-23Q245.83-24.5 249.03-24.5L249.03-24.5Q254.33-24.5 257.8-21.08 261.28-17.65 261.28-12L261.28-12Q261.28-6.05 257.65-2.78 254.03 0.5 248.53 0.5L248.53 0.5Q243.28 0.5 240.03-2.9 236.78-6.3 236.78-12L236.78-12ZM273.03-24L273.03 0 268.63 0 268.63-19.8 264.53-19.8 266.53-24 273.03-24ZM268.43-29L268.43-29Q267.78-29.85 267.78-30.85 267.78-31.85 268.43-32.68 269.08-33.5 270.43-33.5 271.78-33.5 272.43-32.68 273.08-31.85 273.08-30.85 273.08-29.85 272.43-29.03 271.78-28.2 270.43-28.2 269.08-28.2 268.43-29ZM296.12-5.25L296.12-5.25 299.12-2.3Q295.67 0.5 291.22 0.5L291.22 0.5Q285.67 0.5 282.32-3.08 278.97-6.65 278.97-12L278.97-12Q278.97-17.25 282.5-20.88 286.02-24.5 291.22-24.5L291.22-24.5Q295.67-24.5 299.12-21.7L299.12-21.7 296.17-18.7Q294.07-20.3 291.22-20.3L291.22-20.3Q287.77-20.3 285.75-18.03 283.72-15.75 283.72-12 283.72-8.25 285.75-5.98 287.77-3.7 291.22-3.7L291.22-3.7Q294.12-3.7 296.12-5.25ZM324.02-35L333.17-35 333.17-30.6 324.32-30.6Q319.27-30.6 319.27-26.5L319.27-26.5Q319.27-24.3 321.49-22.78 323.72-21.25 327.52-19.85L327.52-19.85Q329.22-19.2 330.42-18.53 331.62-17.85 332.82-16.75 334.02-15.65 334.62-13.93 335.22-12.2 335.22-9.95L335.22-9.95Q335.22-7.45 334.17-5.48 333.12-3.5 331.47-2.38 329.82-1.25 328.09-0.68 326.37-0.1 324.72-0.05L324.72-0.05Q324.02 0 322.72 0L322.72 0 314.92 0 314.92-4.4 322.57-4.4Q325.97-4.4 328.12-5.83 330.27-7.25 330.27-10L330.27-10Q330.27-11.35 329.67-12.38 329.07-13.4 327.94-14.15 326.82-14.9 325.64-15.45 324.47-16 322.82-16.6L322.82-16.6Q322.37-16.75 322.12-16.85L322.12-16.85Q314.27-19.85 314.27-26.65L314.27-26.65Q314.27-30.85 316.97-32.93 319.67-35 324.02-35L324.02-35ZM356.61-5.25L356.61-5.25 359.61-2.3Q356.16 0.5 351.71 0.5L351.71 0.5Q346.16 0.5 342.81-3.08 339.46-6.65 339.46-12L339.46-12Q339.46-17.25 342.99-20.88 346.51-24.5 351.71-24.5L351.71-24.5Q356.16-24.5 359.61-21.7L359.61-21.7 356.66-18.7Q354.56-20.3 351.71-20.3L351.71-20.3Q348.26-20.3 346.24-18.03 344.21-15.75 344.21-12 344.21-8.25 346.24-5.98 348.26-3.7 351.71-3.7L351.71-3.7Q354.61-3.7 356.61-5.25ZM363.86-35L368.26-35 368.26-24 372.51-24Q378.06-24 380.46-22.35L380.46-22.35Q382.61-20.9 383.19-18.88 383.76-16.85 383.76-13.55L383.76-13.55 383.76 0 379.36 0 379.36-13.5Q379.36-14.4 379.31-15.03 379.26-15.65 378.96-16.63 378.66-17.6 378.11-18.23 377.56-18.85 376.51-19.33 375.46-19.8 373.96-19.8L373.96-19.8 368.26-19.8 368.26 0 363.86 0 363.86-35ZM392.51-20.85L392.51-20.85Q396.01-24.5 401.26-24.5L401.26-24.5Q403.81-24.5 406.03-23.53 408.26-22.55 409.93-20.85 411.61-19.15 412.56-16.88 413.51-14.6 413.51-12L413.51-12Q413.51-9.4 412.58-7.13 411.66-4.85 410.01-3.15 408.36-1.45 406.11-0.48 403.86 0.5 401.26 0.5L401.26 0.5Q398.61 0.5 396.38-0.48 394.16-1.45 392.51-3.15 390.86-4.85 389.93-7.13 389.01-9.4 389.01-12L389.01-12Q389.01-17.3 392.51-20.85ZM401.26-20.3L401.26-20.3Q397.76-20.3 395.63-18 393.51-15.7 393.51-12 393.51-8.3 395.63-6 397.76-3.7 401.26-3.7L401.26-3.7Q404.81-3.7 406.91-6.03 409.01-8.35 409.01-12 409.01-15.65 406.91-17.98 404.81-20.3 401.26-20.3ZM421.51-20.85L421.51-20.85Q425.01-24.5 430.26-24.5L430.26-24.5Q432.81-24.5 435.03-23.53 437.26-22.55 438.93-20.85 440.61-19.15 441.56-16.88 442.51-14.6 442.51-12L442.51-12Q442.51-9.4 441.58-7.13 440.66-4.85 439.01-3.15 437.36-1.45 435.11-0.48 432.86 0.5 430.26 0.5L430.26 0.5Q427.61 0.5 425.38-0.48 423.16-1.45 421.51-3.15 419.86-4.85 418.93-7.13 418.01-9.4 418.01-12L418.01-12Q418.01-17.3 421.51-20.85ZM430.26-20.3L430.26-20.3Q426.76-20.3 424.63-18 422.51-15.7 422.51-12 422.51-8.3 424.63-6 426.76-3.7 430.26-3.7L430.26-3.7Q433.81-3.7 435.91-6.03 438.01-8.35 438.01-12 438.01-15.65 435.91-17.98 433.81-20.3 430.26-20.3ZM447.75-9.5L447.75-9.5 447.75-35 452.25-35 452.25-9.5Q452.25-7.7 452.68-6.58 453.1-5.45 454-4.98 454.9-4.5 455.75-4.35 456.6-4.2 458-4.2L458-4.2 458 0Q452.4 0 450.08-2.15 447.75-4.3 447.75-9.5Z" opacity="1" transform="matrix(1,0,0,1,0,0)" fill="black" class="wordmark-text-0" id="SvgjsPath4741" stroke-width="5" stroke="black" stroke-linejoin="round"></path></svg></g></svg></g></svg></g></svg></g></svg></g></svg></g></svg></g></mask><g mask="url(#25b3cab1-1c64-4439-837a-e185b5a3c8f6)"><g><path d="M123.453 124.26v0c-0.147-8.207-1.348-15.975-3.606-23.304-2.286-7.328-5.584-13.748-9.893-19.258-4.338-5.481-9.585-9.834-15.74-13.059-6.156-3.224-13.117-4.837-20.885-4.836v0c-7.768 0-14.73 1.612-20.886 4.836-6.156 3.224-11.388 7.577-15.696 13.059-4.338 5.511-7.636 11.93-9.893 19.258-2.286 7.328-3.503 15.096-3.65 23.304v0c0.147 8.354 1.363 16.122 3.65 23.303 2.257 7.182 5.555 13.41 9.893 18.687 4.309 5.276 9.541 9.453 15.696 12.531 6.156 3.078 13.117 4.617 20.886 4.616v0c7.768 0 14.73-1.539 20.885-4.616 6.156-3.078 11.403-7.255 15.74-12.531 4.309-5.276 7.607-11.505 9.893-18.687 2.257-7.182 3.459-14.949 3.606-23.303zM1 124.26v0c0.147-12.165 1.979-23.157 5.496-32.977 3.518-9.82 8.427-18.218 14.73-25.194 6.302-6.947 13.85-12.297 22.643-16.049 8.794-3.723 18.613-5.584 29.46-5.584v0c10.699 0 20.489 1.861 29.371 5.584 8.852 3.752 16.43 9.102 22.731 16.049 6.302 6.976 11.212 15.374 14.73 25.194 3.518 9.82 5.35 20.812 5.496 32.977v0c-0.147 12.165-1.935 23.084-5.364 32.756-3.459 9.673-8.339 17.881-14.642 24.623-6.302 6.742-13.879 11.945-22.732 15.609-8.882 3.664-18.745 5.496-29.59 5.496v0c-10.846 0-20.695-1.832-29.547-5.496-8.882-3.664-16.474-8.867-22.776-15.609-6.302-6.742-11.168-14.949-14.598-24.623-3.459-9.673-5.262-20.592-5.408-32.756zM191.604 144.265v56.28h-19.566v-96.731c0-15.829 5.1-29.312 15.301-40.451 10.171-11.139 23.318-16.708 39.44-16.708v0h50.345v153.89h-20.666v-134.544h-29.679c-10.699 0-19.229 3.151-25.589 9.453-6.39 6.302-9.585 16.342-9.586 30.119v0 18.687c8.207-8.647 19.932-12.971 35.175-12.971v0h20.006v19.346h-20.006c-8.501 0-15.418 1.026-20.753 3.078-5.364 2.052-10.171 5.569-14.422 10.552zM345.275 46.655h40.231v19.346h-38.912c-14.803 0-22.204 6.009-22.204 18.027v0c0 6.449 3.268 11.901 9.805 16.357 6.507 4.485 15.33 8.779 26.469 12.882v0c4.983 1.905 9.233 3.84 12.751 5.804 3.518 1.993 7.035 4.602 10.553 7.827 3.518 3.224 6.156 7.357 7.914 12.399 1.759 5.071 2.638 10.904 2.638 17.499v0c0 7.328-1.539 13.879-4.617 19.654-3.078 5.804-7.035 10.347-11.871 13.631-4.837 3.312-9.776 5.804-14.818 7.474-5.071 1.7-10.025 2.623-14.861 2.77v0c-2.052 0.147-4.983 0.22-8.794 0.22v0h-34.295v-19.346h33.636c9.966 0 18.1-2.096 24.402-6.288 6.302-4.162 9.453-10.274 9.453-18.334v0c0-3.957-0.879-7.445-2.638-10.465-1.759-2.99-4.28-5.584-7.562-7.782-3.312-2.198-6.683-4.104-10.113-5.716-3.459-1.612-7.607-3.298-12.443-5.057v0c-1.319-0.44-2.345-0.806-3.078-1.099v0c-23.01-8.794-34.515-23.157-34.515-43.089v0c0-12.311 3.957-21.515 11.871-27.613 7.914-6.068 18.247-9.102 30.998-9.101z" fill="#39cccc" fill-rule="nonzero" stroke="none" stroke-width="1" stroke-linecap="butt" stroke-linejoin="miter" stroke-miterlimit="10" stroke-dasharray="" stroke-dashoffset="0" font-family="none" font-weight="none" font-size="none" text-anchor="none" style="mix-blend-mode: normal" data-fill-palette-color="tertiary"></path></g></g><g transform="matrix(1,0,0,1,0,105.9754809259863)"><svg viewBox="0 0 395.52 35.24903814802738" height="35.24903814802738" width="395.52"><g><svg viewBox="0 0 395.52 35.24903814802738" height="35.24903814802738" width="395.52"><g><svg viewBox="0 0 395.52 35.24903814802738" height="35.24903814802738" width="395.52"><g><svg viewBox="0 0 395.52 35.24903814802738" height="35.24903814802738" width="395.52"><g id="textblocktransform"><svg viewBox="0 0 395.52 35.24903814802738" height="35.24903814802738" width="395.52" id="textblock"><g><svg viewBox="0 0 395.52 35.24903814802738" height="35.24903814802738" width="395.52"><g transform="matrix(1,0,0,1,0,0)"><svg width="395.52" viewBox="0 -38.5 461 42" height="35.24903814802738" data-palette-color="#39cccc"><path d="M30.85-17.35L30.85-17.35Q30.8-20.15 30.03-22.65 29.25-25.15 27.78-27.03 26.3-28.9 24.2-30 22.1-31.1 19.45-31.1L19.45-31.1Q16.8-31.1 14.7-30 12.6-28.9 11.13-27.03 9.65-25.15 8.88-22.65 8.1-20.15 8.05-17.35L8.05-17.35Q8.1-14.5 8.88-12.05 9.65-9.6 11.13-7.8 12.6-6 14.7-4.95 16.8-3.9 19.45-3.9L19.45-3.9Q22.1-3.9 24.2-4.95 26.3-6 27.78-7.8 29.25-9.6 30.03-12.05 30.8-14.5 30.85-17.35ZM3-17.35L3-17.35Q3.05-21.5 4.25-24.85 5.45-28.2 7.6-30.58 9.75-32.95 12.75-34.23 15.75-35.5 19.45-35.5L19.45-35.5Q23.1-35.5 26.13-34.23 29.15-32.95 31.3-30.58 33.45-28.2 34.65-24.85 35.85-21.5 35.9-17.35L35.9-17.35Q35.85-13.2 34.68-9.9 33.5-6.6 31.35-4.3 29.2-2 26.18-0.75 23.15 0.5 19.45 0.5L19.45 0.5Q15.75 0.5 12.73-0.75 9.7-2 7.55-4.3 5.4-6.6 4.23-9.9 3.05-13.2 3-17.35ZM49.7-24L58.55-24 58.55-19.8 49.7-19.8Q48.25-19.8 47.2-19.25 46.15-18.7 46.15-17.7L46.15-17.7Q46.15-17.1 46.4-16.63 46.65-16.15 46.97-15.85 47.3-15.55 47.97-15.23 48.65-14.9 49.02-14.78 49.4-14.65 52.2-13.75 55-12.85 56.35-12.25 57.7-11.65 58.42-10.63 59.15-9.6 59.35-8.63 59.55-7.65 59.55-6.7L59.55-6.7Q59.55 0 50.35 0L50.35 0 41.7 0 41.7-4.2 50.35-4.2Q55.05-4.2 55.05-6.7L55.05-6.7Q55.05-7.9 53.67-8.7 52.3-9.5 50.32-10.05 48.35-10.6 46.37-11.33 44.4-12.05 43.02-13.68 41.65-15.3 41.65-17.7L41.65-17.7Q41.65-20.75 44-22.38 46.35-24 49.7-24L49.7-24ZM77.9-14.1L77.9-14.1 77.9-9.6Q76-11.05 73.25-11.05L73.25-11.05Q70.9-11.05 69.6-10.13 68.3-9.2 68.3-7.5L68.3-7.5Q68.3-4.2 73.2-4.2L73.2-4.2 79.8-4.2 79.8-13.75Q79.8-19.8 73.9-19.8L73.9-19.8 65.9-19.8 65.9-24 74.15-24Q79-24 81.6-21.6 84.2-19.2 84.2-14.7L84.2-14.7 84.2 0 73.05 0Q68.8 0 66.3-1.9 63.8-3.8 63.8-7.45 63.8-11.1 66.45-13 69.1-14.9 73.1-14.9L73.1-14.9Q75.35-14.9 77.9-14.1ZM89.94 0L89.94-24 111.99-24Q115.54-24 117.64-22.65L117.64-22.65Q119.79-21.3 120.47-19.15 121.14-17 121.14-14L121.14-14 121.14 0 116.74 0 116.74-14Q116.74-17.9 114.39-19.15L114.39-19.15Q113.19-19.8 109.54-19.8L109.54-19.8 107.49-19.8 107.49 0 103.09 0 103.09-19.8 94.34-19.8 94.34 0 89.94 0ZM140.49-14.1L140.49-14.1 140.49-9.6Q138.59-11.05 135.84-11.05L135.84-11.05Q133.49-11.05 132.19-10.13 130.89-9.2 130.89-7.5L130.89-7.5Q130.89-4.2 135.79-4.2L135.79-4.2 142.39-4.2 142.39-13.75Q142.39-19.8 136.49-19.8L136.49-19.8 128.49-19.8 128.49-24 136.74-24Q141.59-24 144.19-21.6 146.79-19.2 146.79-14.7L146.79-14.7 146.79 0 135.64 0Q131.39 0 128.89-1.9 126.39-3.8 126.39-7.45 126.39-11.1 129.04-13 131.69-14.9 135.69-14.9L135.69-14.9Q137.94-14.9 140.49-14.1ZM168.39-12.8L168.39 0 163.94 0 163.94-22Q163.94-27.4 167.41-31.2 170.89-35 176.39-35L176.39-35 187.84-35 187.84 0 183.14 0 183.14-30.6 176.39-30.6Q172.74-30.6 170.56-28.45 168.39-26.3 168.39-21.6L168.39-21.6 168.39-17.35Q171.19-20.3 176.39-20.3L176.39-20.3 180.94-20.3 180.94-15.9 176.39-15.9Q173.49-15.9 171.66-15.2 169.84-14.5 168.39-12.8L168.39-12.8ZM197.98 0L193.58 0 193.58-13.65Q193.58-19.4 195.73-21.6L195.73-21.6Q196.78-22.7 198.28-23.25 199.78-23.8 200.91-23.9 202.03-24 203.98-24L203.98-24 208.38-24 208.38-19.8 203.08-19.8Q202.08-19.8 201.53-19.75 200.98-19.7 200.23-19.4 199.48-19.1 198.93-18.45L198.93-18.45Q197.98-17.25 197.98-13.65L197.98-13.65 197.98 0ZM224.98-14.1L224.98-14.1 224.98-9.6Q223.08-11.05 220.33-11.05L220.33-11.05Q217.98-11.05 216.68-10.13 215.38-9.2 215.38-7.5L215.38-7.5Q215.38-4.2 220.28-4.2L220.28-4.2 226.88-4.2 226.88-13.75Q226.88-19.8 220.98-19.8L220.98-19.8 212.98-19.8 212.98-24 221.23-24Q226.08-24 228.68-21.6 231.28-19.2 231.28-14.7L231.28-14.7 231.28 0 220.13 0Q215.88 0 213.38-1.9 210.88-3.8 210.88-7.45 210.88-11.1 213.53-13 216.18-14.9 220.18-14.9L220.18-14.9Q222.43-14.9 224.98-14.1ZM236.78-12L236.78-35 241.28-35 241.28-12Q241.28-8.05 243.3-5.88 245.33-3.7 248.88-3.7L248.88-3.7Q252.58-3.7 254.68-5.83 256.78-7.95 256.78-12L256.78-12Q256.78-15.85 254.5-18.07 252.23-20.3 248.53-20.3L248.53-20.3Q245.38-20.3 243.08-18.5L243.08-18.5 243.08-23Q245.83-24.5 249.03-24.5L249.03-24.5Q254.33-24.5 257.8-21.08 261.28-17.65 261.28-12L261.28-12Q261.28-6.05 257.65-2.78 254.03 0.5 248.53 0.5L248.53 0.5Q243.28 0.5 240.03-2.9 236.78-6.3 236.78-12L236.78-12ZM273.03-24L273.03 0 268.63 0 268.63-19.8 264.53-19.8 266.53-24 273.03-24ZM268.43-29L268.43-29Q267.78-29.85 267.78-30.85 267.78-31.85 268.43-32.68 269.08-33.5 270.43-33.5 271.78-33.5 272.43-32.68 273.08-31.85 273.08-30.85 273.08-29.85 272.43-29.03 271.78-28.2 270.43-28.2 269.08-28.2 268.43-29ZM296.12-5.25L296.12-5.25 299.12-2.3Q295.67 0.5 291.22 0.5L291.22 0.5Q285.67 0.5 282.32-3.08 278.97-6.65 278.97-12L278.97-12Q278.97-17.25 282.5-20.88 286.02-24.5 291.22-24.5L291.22-24.5Q295.67-24.5 299.12-21.7L299.12-21.7 296.17-18.7Q294.07-20.3 291.22-20.3L291.22-20.3Q287.77-20.3 285.75-18.03 283.72-15.75 283.72-12 283.72-8.25 285.75-5.98 287.77-3.7 291.22-3.7L291.22-3.7Q294.12-3.7 296.12-5.25ZM324.02-35L333.17-35 333.17-30.6 324.32-30.6Q319.27-30.6 319.27-26.5L319.27-26.5Q319.27-24.3 321.49-22.78 323.72-21.25 327.52-19.85L327.52-19.85Q329.22-19.2 330.42-18.53 331.62-17.85 332.82-16.75 334.02-15.65 334.62-13.93 335.22-12.2 335.22-9.95L335.22-9.95Q335.22-7.45 334.17-5.48 333.12-3.5 331.47-2.38 329.82-1.25 328.09-0.68 326.37-0.1 324.72-0.05L324.72-0.05Q324.02 0 322.72 0L322.72 0 314.92 0 314.92-4.4 322.57-4.4Q325.97-4.4 328.12-5.83 330.27-7.25 330.27-10L330.27-10Q330.27-11.35 329.67-12.38 329.07-13.4 327.94-14.15 326.82-14.9 325.64-15.45 324.47-16 322.82-16.6L322.82-16.6Q322.37-16.75 322.12-16.85L322.12-16.85Q314.27-19.85 314.27-26.65L314.27-26.65Q314.27-30.85 316.97-32.93 319.67-35 324.02-35L324.02-35ZM356.61-5.25L356.61-5.25 359.61-2.3Q356.16 0.5 351.71 0.5L351.71 0.5Q346.16 0.5 342.81-3.08 339.46-6.65 339.46-12L339.46-12Q339.46-17.25 342.99-20.88 346.51-24.5 351.71-24.5L351.71-24.5Q356.16-24.5 359.61-21.7L359.61-21.7 356.66-18.7Q354.56-20.3 351.71-20.3L351.71-20.3Q348.26-20.3 346.24-18.03 344.21-15.75 344.21-12 344.21-8.25 346.24-5.98 348.26-3.7 351.71-3.7L351.71-3.7Q354.61-3.7 356.61-5.25ZM363.86-35L368.26-35 368.26-24 372.51-24Q378.06-24 380.46-22.35L380.46-22.35Q382.61-20.9 383.19-18.88 383.76-16.85 383.76-13.55L383.76-13.55 383.76 0 379.36 0 379.36-13.5Q379.36-14.4 379.31-15.03 379.26-15.65 378.96-16.63 378.66-17.6 378.11-18.23 377.56-18.85 376.51-19.33 375.46-19.8 373.96-19.8L373.96-19.8 368.26-19.8 368.26 0 363.86 0 363.86-35ZM392.51-20.85L392.51-20.85Q396.01-24.5 401.26-24.5L401.26-24.5Q403.81-24.5 406.03-23.53 408.26-22.55 409.93-20.85 411.61-19.15 412.56-16.88 413.51-14.6 413.51-12L413.51-12Q413.51-9.4 412.58-7.13 411.66-4.85 410.01-3.15 408.36-1.45 406.11-0.48 403.86 0.5 401.26 0.5L401.26 0.5Q398.61 0.5 396.38-0.48 394.16-1.45 392.51-3.15 390.86-4.85 389.93-7.13 389.01-9.4 389.01-12L389.01-12Q389.01-17.3 392.51-20.85ZM401.26-20.3L401.26-20.3Q397.76-20.3 395.63-18 393.51-15.7 393.51-12 393.51-8.3 395.63-6 397.76-3.7 401.26-3.7L401.26-3.7Q404.81-3.7 406.91-6.03 409.01-8.35 409.01-12 409.01-15.65 406.91-17.98 404.81-20.3 401.26-20.3ZM421.51-20.85L421.51-20.85Q425.01-24.5 430.26-24.5L430.26-24.5Q432.81-24.5 435.03-23.53 437.26-22.55 438.93-20.85 440.61-19.15 441.56-16.88 442.51-14.6 442.51-12L442.51-12Q442.51-9.4 441.58-7.13 440.66-4.85 439.01-3.15 437.36-1.45 435.11-0.48 432.86 0.5 430.26 0.5L430.26 0.5Q427.61 0.5 425.38-0.48 423.16-1.45 421.51-3.15 419.86-4.85 418.93-7.13 418.01-9.4 418.01-12L418.01-12Q418.01-17.3 421.51-20.85ZM430.26-20.3L430.26-20.3Q426.76-20.3 424.63-18 422.51-15.7 422.51-12 422.51-8.3 424.63-6 426.76-3.7 430.26-3.7L430.26-3.7Q433.81-3.7 435.91-6.03 438.01-8.35 438.01-12 438.01-15.65 435.91-17.98 433.81-20.3 430.26-20.3ZM447.75-9.5L447.75-9.5 447.75-35 452.25-35 452.25-9.5Q452.25-7.7 452.68-6.58 453.1-5.45 454-4.98 454.9-4.5 455.75-4.35 456.6-4.2 458-4.2L458-4.2 458 0Q452.4 0 450.08-2.15 447.75-4.3 447.75-9.5Z" opacity="1" transform="matrix(1,0,0,1,0,0)" fill="#39cccc" class="wordmark-text-0" data-fill-palette-color="primary" id="text-0"></path></svg></g></svg></g></svg></g></svg></g></svg></g></svg></g></svg></g></svg></g><defs></defs></svg><rect width="395.52" height="247.2" fill="none" stroke="none" visibility="hidden"></rect></g></svg></g></svg>